<?xml version="1.0" encoding="utf-8"?>
<!-- Generator: Adobe Illustrator 19.0.0, SVG Export Plug-In . SVG Version: 6.00 Build 0)  -->
<svg version="1.1" id="图层_1" xmlns="http://www.w3.org/2000/svg" xmlns:xlink="http://www.w3.org/1999/xlink" x="0px" y="0px"
	 viewBox="0 0 500 500" style="enable-background:new 0 0 500 500;" xml:space="preserve">
<style type="text/css">
	.st0{opacity:0.2;}
	.st1{fill:none;stroke:#000000;stroke-width:0.75;stroke-miterlimit:10;}
	.st2{fill:none;}
</style>
<g>
	<path class="st0" d="M250,0C111.9,0,0,111.9,0,250s111.9,250,250,250s250-111.9,250-250S388.1,0,250,0z M263.4,369.4
		c-16,33.8-50.4,57.3-90.3,57.3c-39.9,0-74.3-23.4-90.3-57.3c-6.1-12.9-9.5-27.3-9.5-42.5V132.2c0-4.4,3.6-8,8-8
		c1.9,0,3.7,0.7,5.1,1.8l150.2,123.8c22.2,18.3,36.4,46,36.4,77C272.9,342.1,269.5,356.5,263.4,369.4z M426.7,367.8c0,4.4-3.6,8-8,8
		c-1.9,0-3.7-0.7-5.1-1.8c0,0-150.2-123.8-150.2-123.8c-22.2-18.3-36.4-46-36.4-77c0-15.2,3.4-29.6,9.5-42.5
		c16-33.8,50.4-57.3,90.3-57.3c39.9,0,74.3,23.4,90.3,57.3c6.1,12.9,9.5,27.3,9.5,42.5L426.7,367.8z"/>
	<circle class="st1" cx="250" cy="250.2" r="250"/>
	
		<rect x="73.3" y="73.5" transform="matrix(1 2.717180e-003 -2.717180e-003 1 0.6807 -0.6784)" class="st1" width="353.3" height="353.3"/>
	<path class="st1" d="M236.5,250c22.2,18.4,36.2,46.1,36.2,77.1c0,15.2-3.5,29.6-9.6,42.5c-16.1,33.8-50.6,57.1-90.5,57
		c-39.9-0.1-74.3-23.6-90.1-57.5c-6.1-12.9-9.4-27.4-9.4-42.6c0.1-55.1,44.9-99.7,100.1-99.5C197.3,227.1,219.3,235.7,236.5,250z"/>
	<path class="st1" d="M86.7,125.8c1.8,1.5,2.9,3.7,2.9,6.2c0,1.2-0.3,2.4-0.8,3.4c-1.3,2.7-4,4.5-7.1,4.6c0,0-0.1,0-0.1,0
		c-3.2,0-5.9-1.9-7.2-4.6c-0.5-1-0.8-2.2-0.7-3.4c0-4.4,3.6-8,8-8C83.6,124,85.3,124.6,86.7,125.8z"/>
	<line class="st1" x1="86.7" y1="125.8" x2="236.5" y2="250"/>
	<line class="st2" x1="73.6" y1="131.9" x2="73.1" y2="326.6"/>
	<line class="st1" x1="73.6" y1="131.9" x2="73.1" y2="326.6"/>
	<path class="st1" d="M263.5,250.4c-22.2-18.4-36.2-46.1-36.2-77.1c0-15.2,3.5-29.6,9.6-42.5c16.1-33.8,50.6-57.1,90.5-57
		c39.9,0.1,74.3,23.6,90.1,57.5c6.1,12.9,9.4,27.4,9.4,42.6c-0.1,55.1-44.9,99.7-100.1,99.5C302.7,273.2,280.7,264.6,263.5,250.4z"
		/>
	<path class="st1" d="M413.3,374.5c-1.8-1.5-2.9-3.7-2.9-6.2c0-1.2,0.3-2.4,0.8-3.4c1.3-2.7,4-4.5,7.1-4.6c0,0,0.1,0,0.1,0
		c3.2,0,5.9,1.9,7.2,4.6c0.5,1,0.8,2.2,0.7,3.4c0,4.4-3.6,8-8,8C416.4,376.4,414.7,375.7,413.3,374.5z"/>
	<line class="st1" x1="413.3" y1="374.5" x2="263.5" y2="250.4"/>
	<line class="st2" x1="426.4" y1="368.4" x2="426.9" y2="173.8"/>
	<line class="st1" x1="426.4" y1="368.4" x2="426.9" y2="173.8"/>
</g>
</svg>
